<?xml version="1.0" standalone="no"?><!DOCTYPE svg PUBLIC "-//W3C//DTD SVG 1.1//EN" "http://www.w3.org/Graphics/SVG/1.1/DTD/svg11.dtd"><svg t="1500105327218" class="icon" style="" viewBox="0 0 1024 1024" version="1.1" xmlns="http://www.w3.org/2000/svg" p-id="1110" xmlns:xlink="http://www.w3.org/1999/xlink" width="200" height="200"><defs><style type="text/css"></style></defs><path d="M832.802912 471.53438c-16.916275 0-30.638811 13.721513-30.638811 30.638811l0 384.938116c0 6.52153-5.296633 11.818163-11.818163 11.818163L139.349233 898.92947c-6.52153 0-11.818163-5.296633-11.818163-11.818163L127.53107 236.137115c0-6.52153 5.296633-11.839653 11.818163-11.839653l385.15608 0c16.918321 0 30.617321-13.710256 30.617321-30.628578 0-16.927531-13.699-30.638811-30.617321-30.638811L139.349233 163.030074c-40.290635 0-73.096808 32.784684-73.096808 73.107041l0 650.974191c0 40.301891 32.806173 73.096808 73.096808 73.096808l650.995681 0c40.290635 0 73.096808-32.794917 73.096808-73.096808L863.441723 502.174214C863.441723 485.255893 849.719186 471.53438 832.802912 471.53438z" p-id="1111"></path><path d="M936.320567 164.28874l-79.071893-79.082126c-13.808494-13.809517-32.1707-21.414729-51.693336-21.414729-19.520589 0-37.882795 7.605212-51.693336 21.414729L401.577586 437.502285c-3.194762 3.207042-5.646604 7.057743-7.178493 11.32493l-77.80197 216.925564c-4.004197 11.161201-1.203408 23.62507 7.179516 31.996738 5.843078 5.854335 13.677511 8.983605 21.665439 8.983605 3.458775 0 6.960529-0.590448 10.351766-1.794879L572.696896 627.115807c4.246721-1.531889 8.098445-3.983731 11.314697-7.178493l352.308975-352.296695c13.808494-13.809517 21.425985-32.160467 21.425985-51.68208C957.746552 196.426695 950.12906 178.076768 936.320567 164.28874zM396.193972 625.332185l48.14758-134.24447 86.074378 86.074378L396.193972 625.332185zM892.987642 224.318952l-346.880335 346.857822-95.76918-95.76918 346.857822-346.879312c3.019777-3.019777 6.544043-3.469008 8.360412-3.469008s5.340635 0.448208 8.360412 3.469008l79.071893 79.093383c3.019777 3.00852 3.479241 6.510274 3.479241 8.336876C896.467907 217.775932 896.008442 221.299175 892.987642 224.318952z" p-id="1112"></path><path d="M583.903122 451.913507l-28.494984 28.505217c-2.998287 2.998287-2.998287 7.845689 0 10.833743 1.486864 1.499144 3.457752 2.242064 5.40408 2.242064 1.970888 0 3.917216-0.743944 5.428639-2.242064l28.494984-28.516474c2.998287-2.987031 2.998287-7.834432 0-10.822486C591.738577 448.916243 586.901409 448.916243 583.903122 451.913507z" p-id="1113"></path><path d="M823.589063 212.217333 622.443903 413.362492c-3.000334 2.988054-3.000334 7.835456 0 10.822486 1.486864 1.499144 3.457752 2.243087 5.40408 2.243087 1.970888 0 3.917216-0.744967 5.428639-2.243087l201.14516-201.13595c2.998287-2.998287 2.998287-7.845689 0-10.832719C831.446008 209.218022 826.58735 209.218022 823.589063 212.217333z" p-id="1114"></path></svg>