<?xml version="1.0" standalone="no"?><!DOCTYPE svg PUBLIC "-//W3C//DTD SVG 1.1//EN" "http://www.w3.org/Graphics/SVG/1.1/DTD/svg11.dtd"><svg t="1500163734553" class="icon" style="" viewBox="0 0 1024 1024" version="1.1" xmlns="http://www.w3.org/2000/svg" p-id="2384" xmlns:xlink="http://www.w3.org/1999/xlink" width="200" height="200"><defs><style type="text/css"></style></defs><path d="M280.182772 521.169847c-33.414017 0-34.227546 0.817622-34.227546 23.635303l0 117.352755c0 75.79015 4.88731 83.127256 41.563628 88.014566l26.077935 3.260254c6.519484 4.892427 6.519484 23.638373 0 28.52466-46.450938-1.627057-87.200014-2.446725-123.874285-2.446725-39.117926 0-79.864956 0.819668-121.428583 2.446725-6.519484-4.886287-6.519484-23.632233 0-28.52466l19.558451-2.440585c37.487799-4.892427 41.563628-13.043061 41.563628-88.834234L129.416 358.994234c0-75.791174-4.075829-83.940784-41.563628-88.828095l-19.558451-2.445702c-6.519484-4.891404-6.519484-23.632233 0-28.52466 39.931454 1.62808 82.310657 2.441609 121.428583 2.441609 36.673248 0 77.423347-0.813528 113.278973-2.441609 6.519484 4.891404 6.519484 23.632233 0 28.52466l-17.114796 2.445702c-35.044144 4.88731-39.931454 13.036921-39.931454 88.828095l0 94.53405c0 23.636327 0.813528 24.450878 34.227546 24.450878l169.510672 0c34.227546 0 34.227546-0.814552 34.227546-24.450878l0-94.53405c0-75.791174-4.075829-82.308611-41.560558-88.014566l-22.004153-3.260254c-6.519484-4.891404-6.519484-23.632233 0-28.52466 44.822858 1.62808 84.754313 2.441609 123.874285 2.441609 39.932478 0 77.420277-0.813528 114.908076-2.441609 6.519484 4.891404 6.519484 23.632233 0 28.52466l-16.299221 2.445702c-37.489846 5.701862-42.379203 13.036921-42.379203 88.828095l0 303.163671c0 75.79015 4.889357 81.495082 42.379203 88.014566l19.558451 3.260254c6.519484 4.892427 6.519484 23.638373 0 28.52466-40.74703-1.627057-80.680531-2.446725-118.16833-2.446725-40.74703 0-80.680531 0.819668-119.800503 2.446725-6.519484-4.886287-6.519484-23.632233 0-28.52466l17.931395-2.440585c37.484729-4.892427 41.560558-13.043061 41.560558-88.834234l0-117.352755c0-22.817682 0-23.635303-34.227546-23.635303L280.182772 521.168824z" p-id="2385"></path><path d="M894.404921 701.540867c0 48.739051 3.653203 54.830793 33.505092 57.269331l24.978904 1.824555c5.483898 3.65525 4.875031 19.495006-1.218758 21.321608-21.930475-1.218758-58.483996-1.826602-96.255251-1.826602-40.20877 0-76.765361 0.607844-98.69686 1.826602-6.091742-1.826602-6.698562-17.666358-1.218758-21.321608l24.978904-1.824555c29.851888-2.438539 33.507138-8.53028 33.507138-57.269331L813.985334 504.759085c0-40.207747-2.434445-49.343825-29.241998-53.000098l-28.025287-3.656273c-5.479805-3.046383-6.091742-17.666358-1.218758-21.322631 24.978904-3.656273 53.615105-10.354835 77.984119-17.057491 26.804483-7.921413 49.954739-19.495006 54.217832-19.495006 3.047406 0 7.312546 1.827625 8.531304 6.698562-1.217734 14.015202-1.827625 42.036395-1.827625 72.499198L894.404921 701.540867z" p-id="2386"></path></svg>