<?xml version="1.0" standalone="no"?><!DOCTYPE svg PUBLIC "-//W3C//DTD SVG 1.1//EN" "http://www.w3.org/Graphics/SVG/1.1/DTD/svg11.dtd"><svg t="1500163757136" class="icon" style="" viewBox="0 0 1024 1024" version="1.1" xmlns="http://www.w3.org/2000/svg" p-id="3156" xmlns:xlink="http://www.w3.org/1999/xlink" width="200" height="200"><defs><style type="text/css"></style></defs><path d="M271.651468 528.590863c-32.051997 0-32.831756 0.782829-32.831756 22.671349l0 112.567775c0 72.701812 4.688789 79.739089 39.869033 84.427878l25.01472 3.127224c6.253424 4.691859 6.253424 22.672372 0 27.360138-44.556798-1.560542-83.646072-2.345418-118.824269-2.345418-37.522592 0-76.608795 0.784876-116.477828 2.345418-6.253424-4.687766-6.253424-22.668279 0-27.360138l18.761296-2.342348c35.960003-4.692882 39.869033-12.510942 39.869033-85.21173l0-290.803155c0-72.702835-3.90903-80.518848-39.869033-85.209684l-18.761296-2.345418c-6.253424-4.689812-6.253424-22.669302 0-27.361161 38.303374 1.563612 78.955236 2.344395 116.477828 2.344395 35.178197 0 74.266447-0.780783 108.660792-2.344395 6.253424 4.691859 6.253424 22.671349 0 27.361161l-16.416901 2.345418c-33.614585 4.689812-38.303374 12.506848-38.303374 85.209684l0 90.679255c0 22.671349 0.780783 23.452131 32.831756 23.452131l162.600285 0c32.832779 0 32.832779-0.780783 32.832779-23.452131l0-90.679255c0-72.702835-3.908006-78.955236-39.869033-84.427878l-21.10569-3.127224c-6.253424-4.689812-6.253424-22.669302 0-27.361161 42.996257 1.563612 81.299631 2.344395 118.824269 2.344395 38.305421 0 74.264401-0.780783 110.223381-2.344395 6.253424 4.691859 6.253424 22.671349 0 27.361161l-15.634072 2.345418c-35.961026 5.471618-40.651862 12.506848-40.651862 85.209684l0 290.803155c0 72.701812 4.690836 78.17343 40.651862 84.427878l18.761296 3.127224c6.253424 4.691859 6.253424 22.672372 0 27.360138-39.08518-1.560542-77.391624-2.345418-113.350604-2.345418-39.086204 0-77.391624 0.784876-114.916263 2.345418-6.253424-4.687766-6.253424-22.668279 0-27.360138l17.197684-2.342348c35.961026-4.692882 39.869033-12.510942 39.869033-85.21173L467.084533 551.262212c0-21.889543 0-22.671349-32.832779-22.671349L271.651468 528.590863z" p-id="3157"></path><path d="M867.846032 716.802456c42.660612 0 49.672306-1.169639 66.620303-32.142048 4.091178-4.089132 17.530258-4.089132 19.868513 3.507894-5.258771 36.230156-18.699897 76.55456-28.632107 90.577948-23.376407-1.168616-44.413536-1.752924-81.814354-1.752924l-92.919273 0c-30.386054 0-55.516408 0.584308-65.450664 1.752924-5.258771-1.168616-7.012717-7.593955-5.843078-12.854772 22.206768-20.453844 55.515385-51.427276 90.577948-89.99671 40.322357-44.411489 76.556607-93.502557 76.556607-156.030659 0-40.324404-24.542976-71.296813-63.696718-71.296813-33.31271 0-56.68707 21.621437-75.386968 53.764508-7.012717 4.675486-18.117636 1.169639-19.287275-8.181333 23.960715-59.022255 77.725222-91.164303 134.412292-91.164303 68.370157 0 110.447485 44.414559 110.447485 99.345636 0 45.583175-18.11559 78.308507-88.24174 144.344502l-28.049846 26.295899c-25.714661 23.960715-30.973432 32.142048-30.973432 36.817534 0 3.505847 2.920516 7.013741 11.103896 7.013741L867.846032 716.803479z" p-id="3158"></path></svg>