<?xml version="1.0" standalone="no"?><!DOCTYPE svg PUBLIC "-//W3C//DTD SVG 1.1//EN" "http://www.w3.org/Graphics/SVG/1.1/DTD/svg11.dtd"><svg t="1500163772381" class="icon" style="" viewBox="0 0 1024 1024" version="1.1" xmlns="http://www.w3.org/2000/svg" p-id="3811" xmlns:xlink="http://www.w3.org/1999/xlink" width="200" height="200"><defs><style type="text/css"></style></defs><path d="M275.232017 508.535085c-32.340569 0-33.128515 0.789992-33.128515 22.877033L242.103502 645.0032c0 73.360821 4.730745 80.462566 40.229237 85.194334l25.243941 3.154853c6.310729 4.734838 6.310729 22.878057 0 27.609825-44.964074-1.575892-84.404342-2.367931-119.902834-2.367931-37.865399 0-77.30669 0.792039-117.535927 2.367931-6.310729-4.731768-6.310729-22.874987 0-27.609825l18.932188-2.363837c36.285414-4.734838 40.23026-12.624529 40.23026-85.98535L129.300366 351.558891c0-73.362868-3.944845-81.249489-40.23026-85.983303l-18.932188-2.366907c-6.310729-4.732791-6.310729-22.874987 0-27.609825 38.651298 1.577938 79.670527 2.365884 117.535927 2.365884 35.498492 0 74.93876-0.787946 109.647259-2.365884 6.310729 4.734838 6.310729 22.877033 0 27.609825l-16.566304 2.366907c-33.920554 4.732791-38.651298 12.620435-38.651298 85.983303l0 91.503017c0 22.877033 0.787946 23.663956 33.128515 23.663956l164.078962 0c33.130561 0 33.130561-0.787946 33.130561-23.663956l0-91.503017c0-73.362868-3.942799-79.672574-40.229237-85.195358l-21.299095-3.154853c-6.311753-4.732791-6.311753-22.874987 0-27.609825 43.386136 1.577938 82.037435 2.365884 119.900787 2.365884 38.655392 0 74.940806-0.787946 111.225197-2.365884 6.312776 4.734838 6.312776 22.877033 0 27.609825l-15.776312 2.366907c-36.286438 5.520737-41.019229 12.620435-41.019229 85.983303L585.243653 645.0032c0 73.360821 4.732791 78.883605 41.019229 85.194334l18.933211 3.154853c6.310729 4.734838 6.310729 22.878057 0 27.609825-39.441291-1.575892-78.093613-2.367931-114.382097-2.367931-39.440267 0-78.091566 0.792039-115.957988 2.367931-6.310729-4.731768-6.310729-22.874987 0-27.609825l17.356296-2.363837c36.285414-4.734838 40.229237-12.624529 40.229237-85.98535L472.441541 531.412119c0-22.087041 0-22.877033-33.130561-22.877033L275.232017 508.535085z" p-id="3812"></path><path d="M728.241484 436.631452c-8.257058 2.356674-16.513092-4.129041-16.513092-11.20418 23.586185-47.76691 70.173223-74.892711 123.245975-74.892711 57.789171 0 93.761454 28.305673 93.761454 67.814502 0 24.177656-10.025331 48.356334-74.302263 76.071559-6.485715 2.949168-2.358721 7.665587 5.306866 7.665587 53.074799-1.769296 99.069343 34.792411 99.069343 91.402733 0 42.457997-20.638039 85.505419-67.812455 120.299877-50.717102 36.561707-104.377232 47.174416-136.220475 47.174416s-63.687508-11.792581-63.687508-41.86755c0-15.921621 11.794627-32.43369 35.380812-32.43369 21.231557 0 34.202986 23.589254 39.510876 31.253818 7.076162 10.615779 17.10047 13.564947 25.355481 13.564947 25.357528 0 79.018681-33.614585 79.018681-106.146529 0-52.482305-27.125801-90.222861-68.993351-90.222861-24.178679 0-43.638893 11.20418-58.379619 24.768103-11.793604-2.359744-18.869766-14.742772-13.563924-28.306696 23.588231-8.845459 71.353095-28.304649 94.941326-47.764863 10.614755-8.845459 24.768103-26.535353 24.768103-53.072753 0-21.818935-19.462261-43.047422-48.357358-43.047422C772.466732 387.685693 745.931379 410.093029 728.241484 436.631452z" p-id="3813"></path></svg>