<!-- Generated by IcoMoon.io -->
<svg version="1.1" xmlns="http://www.w3.org/2000/svg" width="32" height="32" viewBox="0 0 32 32">
<title>copy</title>
<path d="M22.357 24.379c-0.669 0-1.21 0.542-1.21 1.21v0.947c0 0.574-0.467 1.042-1.041 1.042h-14.596c-0.574 0-1.042-0.467-1.042-1.042v-14.596c0-0.574 0.468-1.041 1.042-1.041h0.84c0.669 0 1.21-0.542 1.21-1.21s-0.541-1.21-1.21-1.21h-0.84c-1.91 0-3.463 1.553-3.463 3.461v14.596c0 1.909 1.553 3.462 3.463 3.462h14.596c1.909 0 3.461-1.553 3.461-3.462v-0.947c0-0.668-0.541-1.21-1.21-1.21zM26.322 2.001h-14.259c-2.002 0-3.63 1.628-3.63 3.63v14.259c0 2.002 1.629 3.63 3.63 3.63h14.259c2.002 0 3.63-1.628 3.63-3.63v-14.259c0-2.002-1.628-3.63-3.63-3.63zM27.532 19.89c0 0.667-0.542 1.21-1.21 1.21h-14.259c-0.668 0-1.21-0.543-1.21-1.21v-14.259c0-0.667 0.542-1.21 1.21-1.21h14.259c0.668 0 1.21 0.543 1.21 1.21v14.259z"></path>
</svg>
