<!-- Generated by IcoMoon.io -->
<svg version="1.1" xmlns="http://www.w3.org/2000/svg" width="32" height="32" viewBox="0 0 32 32">
<title>delete</title>
<path d="M28.774 8.478c0 0.327-0.254 0.581-0.581 0.581h-1.742v17.201c0 1.996-1.306 3.702-2.903 3.702h-15.097c-1.597 0-2.903-1.633-2.903-3.629v-17.274h-1.742c-0.327 0-0.581-0.254-0.581-0.581v-1.161c0-0.327 0.254-0.581 0.581-0.581h5.607l1.27-3.030c0.363-0.889 1.452-1.615 2.413-1.615h5.806c0.962 0 2.050 0.726 2.413 1.615l1.27 3.030h5.607c0.327 0 0.581 0.254 0.581 0.581v1.161zM24.129 9.059h-16.258v17.201c0 0.871 0.49 1.379 0.581 1.379h15.097c0.091 0 0.581-0.508 0.581-1.379v-17.201zM12.516 23.575c0 0.327-0.254 0.581-0.581 0.581h-1.161c-0.327 0-0.581-0.254-0.581-0.581v-10.452c0-0.327 0.254-0.581 0.581-0.581h1.161c0.327 0 0.581 0.254 0.581 0.581v10.452zM20.064 6.736l-0.871-2.123c-0.054-0.073-0.218-0.181-0.308-0.2h-5.752c-0.109 0.018-0.254 0.127-0.308 0.2l-0.889 2.123h8.129zM17.161 23.575c0 0.327-0.254 0.581-0.581 0.581h-1.161c-0.327 0-0.581-0.254-0.581-0.581v-10.452c0-0.327 0.254-0.581 0.581-0.581h1.161c0.327 0 0.581 0.254 0.581 0.581v10.452zM21.806 23.575c0 0.327-0.254 0.581-0.581 0.581h-1.161c-0.327 0-0.581-0.254-0.581-0.581v-10.452c0-0.327 0.254-0.581 0.581-0.581h1.161c0.327 0 0.581 0.254 0.581 0.581v10.452z"></path>
</svg>
