<!-- Generated by IcoMoon.io -->
<svg version="1.1" xmlns="http://www.w3.org/2000/svg" width="32" height="32" viewBox="0 0 32 32">
<title>dot</title>
<path d="M16 18.286c-1.262 0-2.286-1.023-2.286-2.286s1.023-2.286 2.286-2.286v0c1.262 0 2.286 1.023 2.286 2.286s-1.023 2.286-2.286 2.286v0zM16 9.143c-1.262 0-2.286-1.023-2.286-2.286s1.023-2.286 2.286-2.286v0c1.262 0 2.286 1.023 2.286 2.286s-1.023 2.286-2.286 2.286v0zM16 22.857c1.262 0 2.286 1.023 2.286 2.286s-1.023 2.286-2.286 2.286v0c-1.262 0-2.286-1.023-2.286-2.286s1.023-2.286 2.286-2.286v0z"></path>
</svg>
