<!-- Generated by IcoMoon.io -->
<svg version="1.1" xmlns="http://www.w3.org/2000/svg" width="32" height="32" viewBox="0 0 32 32">
<title>edit</title>
<path d="M26.025 14.735c-0.529 0-0.957 0.429-0.957 0.957v12.029c0 0.204-0.166 0.369-0.369 0.369h-20.344c-0.204 0-0.369-0.166-0.369-0.369v-20.343c0-0.204 0.166-0.37 0.369-0.37h12.036c0.529 0 0.957-0.428 0.957-0.957s-0.428-0.957-0.957-0.957h-12.036c-1.259 0-2.284 1.025-2.284 2.285v20.343c0 1.259 1.025 2.284 2.284 2.284h20.344c1.259 0 2.284-1.025 2.284-2.284v-12.029c0-0.529-0.429-0.957-0.957-0.957z"></path>
<path d="M29.26 5.134l-2.471-2.471c-0.431-0.432-1.005-0.669-1.615-0.669s-1.184 0.238-1.615 0.669l-11.009 11.009c-0.1 0.1-0.176 0.221-0.224 0.354l-2.431 6.779c-0.125 0.349-0.038 0.738 0.224 1 0.183 0.183 0.427 0.281 0.677 0.281 0.108 0 0.218-0.018 0.323-0.056l6.778-2.432c0.133-0.048 0.253-0.125 0.354-0.224l11.010-11.009c0.431-0.432 0.67-1.005 0.67-1.615s-0.238-1.184-0.67-1.615zM12.381 19.542l1.505-4.195 2.69 2.69-4.194 1.505zM27.906 7.010l-10.84 10.839-2.993-2.993 10.839-10.84c0.094-0.094 0.204-0.108 0.261-0.108s0.167 0.014 0.261 0.108l2.471 2.472c0.094 0.094 0.109 0.203 0.109 0.261s-0.014 0.167-0.109 0.261z"></path>
<path d="M18.247 14.122l-0.89 0.891c-0.094 0.094-0.094 0.245 0 0.339 0.046 0.047 0.108 0.070 0.169 0.070s0.122-0.023 0.17-0.070l0.89-0.891c0.094-0.093 0.094-0.245 0-0.338s-0.245-0.094-0.339 0z"></path>
<path d="M25.737 6.632l-6.286 6.286c-0.094 0.093-0.094 0.245 0 0.338 0.046 0.047 0.108 0.070 0.169 0.070s0.122-0.023 0.17-0.070l6.286-6.285c0.094-0.094 0.094-0.245 0-0.339s-0.245-0.094-0.339 0z"></path>
</svg>
