<!-- Generated by IcoMoon.io -->
<svg version="1.1" xmlns="http://www.w3.org/2000/svg" width="32" height="32" viewBox="0 0 32 32">
<title>H1</title>
<path d="M8.756 16.287c-1.044 0-1.070 0.026-1.070 0.739v3.667c0 2.368 0.153 2.598 1.299 2.75l0.815 0.102c0.204 0.153 0.204 0.739 0 0.891-1.452-0.051-2.725-0.076-3.871-0.076-1.222 0-2.496 0.026-3.795 0.076-0.204-0.153-0.204-0.738 0-0.891l0.611-0.076c1.171-0.153 1.299-0.408 1.299-2.776v-9.474c0-2.368-0.127-2.623-1.299-2.776l-0.611-0.076c-0.204-0.153-0.204-0.739 0-0.891 1.248 0.051 2.572 0.076 3.795 0.076 1.146 0 2.419-0.025 3.54-0.076 0.204 0.153 0.204 0.738 0 0.891l-0.535 0.076c-1.095 0.153-1.248 0.407-1.248 2.776v2.954c0 0.739 0.025 0.764 1.070 0.764h5.297c1.070 0 1.070-0.025 1.070-0.764v-2.954c0-2.368-0.127-2.572-1.299-2.75l-0.688-0.102c-0.204-0.153-0.204-0.739 0-0.891 1.401 0.051 2.649 0.076 3.871 0.076 1.248 0 2.419-0.025 3.591-0.076 0.204 0.153 0.204 0.738 0 0.891l-0.509 0.076c-1.172 0.178-1.324 0.407-1.324 2.776v9.474c0 2.368 0.153 2.547 1.324 2.75l0.611 0.102c0.204 0.153 0.204 0.739 0 0.891-1.273-0.051-2.521-0.076-3.693-0.076-1.273 0-2.521 0.026-3.744 0.076-0.204-0.153-0.204-0.738 0-0.891l0.56-0.076c1.171-0.153 1.299-0.408 1.299-2.776v-3.667c0-0.713 0-0.739-1.070-0.739h-5.297z"></path>
<path d="M27.95 21.923c0 1.523 0.114 1.713 1.047 1.79l0.781 0.057c0.171 0.114 0.152 0.609-0.038 0.666-0.685-0.038-1.828-0.057-3.008-0.057-1.257 0-2.399 0.019-3.084 0.057-0.19-0.057-0.209-0.552-0.038-0.666l0.781-0.057c0.933-0.076 1.047-0.267 1.047-1.79v-6.149c0-1.256-0.076-1.542-0.914-1.656l-0.876-0.114c-0.171-0.095-0.19-0.552-0.038-0.666 0.781-0.114 1.675-0.324 2.437-0.533 0.838-0.248 1.561-0.609 1.694-0.609 0.095 0 0.229 0.057 0.267 0.209-0.038 0.438-0.057 1.314-0.057 2.266v7.254z"></path>
</svg>
