<!-- Generated by IcoMoon.io -->
<svg version="1.1" xmlns="http://www.w3.org/2000/svg" width="32" height="32" viewBox="0 0 32 32">
<title>H2</title>
<path d="M8.489 16.518c-1.002 0-1.026 0.024-1.026 0.708v3.518c0 2.272 0.147 2.492 1.246 2.638l0.782 0.098c0.195 0.147 0.195 0.709 0 0.855-1.392-0.049-2.614-0.073-3.713-0.073-1.173 0-2.394 0.025-3.64 0.073-0.195-0.146-0.195-0.708 0-0.855l0.586-0.073c1.124-0.147 1.246-0.391 1.246-2.663v-9.088c0-2.272-0.122-2.516-1.246-2.663l-0.586-0.073c-0.195-0.147-0.195-0.708 0-0.855 1.197 0.049 2.467 0.073 3.64 0.073 1.099 0 2.321-0.024 3.396-0.073 0.195 0.147 0.195 0.708 0 0.855l-0.513 0.073c-1.050 0.147-1.197 0.391-1.197 2.663v2.834c0 0.708 0.024 0.733 1.026 0.733h5.081c1.026 0 1.026-0.024 1.026-0.733v-2.834c0-2.272-0.122-2.467-1.246-2.638l-0.66-0.098c-0.195-0.147-0.195-0.708 0-0.855 1.344 0.049 2.541 0.073 3.713 0.073 1.197 0 2.321-0.024 3.444-0.073 0.195 0.147 0.195 0.708 0 0.855l-0.489 0.073c-1.124 0.171-1.27 0.391-1.27 2.663v9.088c0 2.272 0.147 2.443 1.27 2.638l0.586 0.098c0.195 0.147 0.195 0.709 0 0.855-1.221-0.049-2.418-0.073-3.542-0.073-1.221 0-2.418 0.025-3.591 0.073-0.195-0.146-0.195-0.708 0-0.855l0.537-0.073c1.124-0.147 1.246-0.391 1.246-2.663v-3.518c0-0.684 0-0.708-1.026-0.708h-5.081z"></path>
<path d="M27.12 22.4c1.333 0 1.552-0.037 2.082-1.004 0.128-0.128 0.548-0.128 0.621 0.11-0.164 1.132-0.584 2.392-0.895 2.831-0.73-0.037-1.388-0.055-2.557-0.055h-2.904c-0.95 0-1.735 0.018-2.045 0.055-0.164-0.037-0.219-0.237-0.183-0.402 0.694-0.639 1.735-1.607 2.831-2.812 1.26-1.388 2.392-2.922 2.392-4.876 0-1.26-0.767-2.228-1.991-2.228-1.041 0-1.771 0.676-2.356 1.68-0.219 0.146-0.566 0.037-0.603-0.256 0.749-1.844 2.429-2.849 4.2-2.849 2.137 0 3.451 1.388 3.451 3.105 0 1.424-0.566 2.447-2.758 4.511l-0.877 0.822c-0.804 0.749-0.968 1.004-0.968 1.151 0 0.11 0.091 0.219 0.347 0.219h2.21z"></path>
</svg>
