<!-- Generated by IcoMoon.io -->
<svg version="1.1" xmlns="http://www.w3.org/2000/svg" width="32" height="32" viewBox="0 0 32 32">
<title>H3</title>
<path d="M8.601 15.892c-1.011 0-1.035 0.025-1.035 0.715v3.55c0 2.293 0.148 2.514 1.257 2.662l0.789 0.099c0.197 0.148 0.197 0.715 0 0.863-1.405-0.049-2.638-0.074-3.747-0.074-1.183 0-2.416 0.025-3.673 0.074-0.197-0.148-0.197-0.715 0-0.863l0.592-0.074c1.134-0.148 1.257-0.395 1.257-2.687v-9.17c0-2.293-0.123-2.539-1.257-2.687l-0.592-0.074c-0.197-0.148-0.197-0.715 0-0.863 1.208 0.049 2.49 0.074 3.673 0.074 1.109 0 2.342-0.025 3.426-0.074 0.197 0.148 0.197 0.715 0 0.863l-0.518 0.074c-1.060 0.148-1.208 0.394-1.208 2.687v2.859c0 0.715 0.025 0.739 1.035 0.739h5.127c1.035 0 1.035-0.025 1.035-0.739v-2.859c0-2.293-0.123-2.49-1.257-2.662l-0.666-0.099c-0.197-0.148-0.197-0.715 0-0.863 1.356 0.049 2.564 0.074 3.747 0.074 1.208 0 2.342-0.025 3.476-0.074 0.197 0.148 0.197 0.715 0 0.863l-0.493 0.074c-1.134 0.173-1.282 0.394-1.282 2.687v9.17c0 2.293 0.148 2.465 1.282 2.662l0.592 0.099c0.197 0.148 0.197 0.715 0 0.863-1.233-0.049-2.44-0.074-3.574-0.074-1.232 0-2.44 0.025-3.624 0.074-0.197-0.148-0.197-0.715 0-0.863l0.542-0.074c1.134-0.148 1.257-0.395 1.257-2.687v-3.55c0-0.69 0-0.715-1.035-0.715h-5.127z"></path>
<path d="M22.758 13.645c-0.258 0.074-0.516-0.129-0.516-0.35 0.737-1.493 2.193-2.34 3.851-2.34 1.806 0 2.93 0.885 2.93 2.119 0 0.756-0.313 1.511-2.322 2.377-0.203 0.092-0.074 0.24 0.166 0.24 1.659-0.055 3.096 1.087 3.096 2.856 0 1.327-0.645 2.672-2.119 3.759-1.585 1.143-3.262 1.474-4.257 1.474s-1.99-0.369-1.99-1.308c0-0.498 0.369-1.014 1.106-1.014 0.663 0 1.069 0.737 1.235 0.977 0.221 0.332 0.534 0.424 0.792 0.424 0.792 0 2.469-1.050 2.469-3.317 0-1.64-0.848-2.819-2.156-2.819-0.756 0-1.364 0.35-1.824 0.774-0.369-0.074-0.59-0.461-0.424-0.885 0.737-0.276 2.23-0.885 2.967-1.493 0.332-0.276 0.774-0.829 0.774-1.659 0-0.682-0.608-1.345-1.511-1.345-0.884-0-1.714 0.7-2.267 1.53z"></path>
</svg>
